<svg width="52" height="52" viewBox="0 0 52 52" fill="none" xmlns="http://www.w3.org/2000/svg">
<g clip-path="url(#clip0_11_287)">
<mask id="mask0_11_287" style="mask-type:luminance" maskUnits="userSpaceOnUse" x="0" y="0" width="52" height="52">
<rect width="52" height="52" fill="white"/>
</mask>
<g mask="url(#mask0_11_287)">
</g>
<g clip-path="url(#clip1_11_287)">
<path fill-rule="evenodd" clip-rule="evenodd" d="M25.9252 0.944702C39.7223 0.944702 50.9058 11.8313 50.9058 25.2595C50.9058 38.6878 39.7223 49.5743 25.9252 49.5743C12.128 49.5743 0.94458 38.6878 0.94458 25.2595C0.94458 11.8313 12.128 0.944702 25.9252 0.944702V0.944702Z" stroke="#6666D2" stroke-width="1.8894" stroke-miterlimit="22.9256"/>
<path d="M23.6894 27.3918H27.9091V12.8434H23.6894V27.3918ZM28.8268 29.2272H22.7717C22.2634 29.2272 21.854 28.8179 21.854 28.3095V11.9302C21.854 11.4219 22.2634 11.0125 22.7717 11.0125H28.8268C29.3351 11.0125 29.7445 11.4219 29.7445 11.9302V28.3095C29.7445 28.8179 29.3351 29.2272 28.8268 29.2272Z" fill="#6666D2"/>
<path d="M23.6894 38.0894H27.9091V34.4366H23.6894V38.0894ZM28.8268 39.9249H22.7717C22.2634 39.9249 21.854 39.5155 21.854 39.0072V33.5189C21.854 33.0106 22.2634 32.6012 22.7717 32.6012H28.8268C29.3351 32.6012 29.7445 33.0106 29.7445 33.5189V39.0072C29.7445 39.5155 29.3351 39.9249 28.8268 39.9249Z" fill="#6666D2"/>
</g>
</g>
<defs>
<clipPath id="clip0_11_287">
<rect width="52" height="52" fill="white"/>
</clipPath>
<clipPath id="clip1_11_287">
<rect width="51.8506" height="50.5145" fill="white"/>
</clipPath>
</defs>
</svg>
